<?xml version="1.0" standalone="no"?>
<!DOCTYPE svg PUBLIC "-//W3C//DTD SVG 20010904//EN"
  "http://www.w3.org/TR/2001/REC-SVG-20010904/DTD/svg10.dtd">
<svg version="1.0" xmlns="http://www.w3.org/2000/svg"
     width="256.000000pt" height="256.000000pt" viewBox="0 0 256.000000 256.000000"
     preserveAspectRatio="xMidYMid meet">
  <style type="text/css">
    g{fill:url(#MyGradient)}
  </style>
  <defs>
    <linearGradient id="MyGradient">
      <stop offset="5%" stop-color="#c71f1e"/>
      <stop offset="80%" stop-color="#721212"/>
    </linearGradient>
  </defs>

  <g transform="translate(0.000000,256.000000) scale(0.100000,-0.100000)"
     stroke="none">
    <path d="M535 2450 c-74 -15 -149 -50 -310 -143 l-160 -92 -3 -563 c-2 -607 0
-638 51 -752 33 -74 105 -167 164 -211 26 -20 263 -161 526 -313 l478 -276
491 283 c551 316 589 344 661 483 66 128 67 133 67 774 l0 575 -167 95 c-213
121 -276 143 -408 144 -135 1 -202 -21 -390 -129 -82 -48 -156 -90 -164 -94
-9 -6 83 -64 278 -176 l291 -168 -2 -380 -3 -379 -327 -189 -327 -189 -328
189 -328 189 -3 379 -2 378 275 159 c152 88 283 164 291 170 12 9 -14 28 -133
96 -81 47 -166 93 -188 103 -87 41 -232 57 -330 37z"/>
    <path d="M1160 1945 c-30 -9 -100 -41 -155 -72 -55 -31 -117 -66 -137 -77
l-38 -21 0 -167 c0 -187 13 -249 70 -338 45 -71 99 -114 245 -198 l126 -73
132 76 c261 150 322 258 315 564 l-3 133 -125 72 c-69 40 -145 80 -170 90 -62
25 -190 30 -260 11z"/>
  </g>
</svg>
